# xmcd CD database file
#
# Track frame offsets:
#	183
#	21478
#	35653
#	78660
#	106350
#	126740
#	152013
#	175775
#	215785
#	230845
#	269335
#
# Disc length: 3826 seconds
#
# Revision: 0
# Processed by: cddbd v1.5.2PL0 Copyright (c) Steve Scherf et al.
# Submitted via: cdripper 1,0,33,916
#
DISCID=a60ef00b
DTITLE=George Benson - Jazz Masters 21
DYEAR=1994
DGENRE=Jazz
TTITLE0=Thunder Walk
TTITLE1=Sack O' Woe
TTITLE2=Tuxedo Junction
TTITLE3=Billie's Bounce
TTITLE4=Something/ Octopus's Garden
TTITLE5=What's new?
TTITLE6=Shape of Things (to come)
TTITLE7=The Boss (feat Jimmy Smith)
TTITLE8=Out of the Blue
TTITLE9=Low Down and Dirty
TTITLE10=I remember Wes
EXTD=YEAR: 1994
EXTT0=
EXTT1=
EXTT2=
EXTT3=
EXTT4=
EXTT5=
EXTT6=
EXTT7=
EXTT8=
EXTT9=
EXTT10=
PLAYORDER=
